<svg aria-hidden="true" style="position:absolute;width:0;height:0" xmlns="http://www.w3.org/2000/svg" overflow="hidden"><defs><symbol id="icon-1" viewBox="0 0 84 32"><path d="M9.157 18.314l4.643-2.053 2.672 1.54.54 5.052-3.293-.027.486-3.512-.567-.324-2.78 2.161-1.701-2.837zM16.769 17.584l4.103 2.999 1.62-2.891-3.293-1.324v-.648l3.293-1.351-1.62-2.864-4.103 2.999v3.08zM16.472 14.261l.54-5.052-3.293.054.486 3.512-.567.324-2.807-2.161-1.674 2.81 4.643 2.053 2.672-1.54zM33.48 15.425v4.733h1.772v-6.032h-2.581v1.299h.809zM33.424 13.279c.163.169.41.253.742.253s.576-.084.731-.253a.934.934 0 0 0 .244-.66c0-.272-.081-.492-.244-.66-.155-.176-.399-.264-.731-.264s-.58.088-.742.264c-.155.169-.233.389-.233.66 0 .264.078.484.233.66zM27.309 20.027c.502.227 1.119.341 1.85.341.687 0 1.278-.106 1.773-.319s.875-.51 1.141-.891c.273-.389.41-.84.41-1.354 0-.499-.129-.921-.388-1.266-.251-.352-.602-.627-1.053-.825-.451-.206-.971-.334-1.562-.385l-.62-.055c-.369-.029-.635-.128-.798-.297s-.244-.367-.244-.594c0-.176.044-.338.133-.484a.917.917 0 0 1 .399-.363c.185-.088.41-.132.676-.132.281 0 .513.051.698.154.041.022.079.045.115.07l.009.006.04.029a1.036 1.036 0 0 1 .412.842h1.772c0-.528-.122-.987-.365-1.376a2.381 2.381 0 0 0-1.052-.914c-.451-.22-.993-.33-1.629-.33-.606 0-1.13.103-1.573.308a2.4 2.4 0 0 0-1.041.858c-.244.374-.366.818-.366 1.332 0 .712.24 1.284.72 1.717s1.123.682 1.928.748l.609.055c.495.044.853.143 1.075.297a.69.69 0 0 1 .332.605.893.893 0 0 1-.177.55c-.118.154-.292.275-.521.363s-.513.132-.853.132c-.377 0-.683-.051-.919-.154a1.26 1.26 0 0 1-.532-.429 1.053 1.053 0 0 1-.166-.572h-1.761c0 .521.129.983.388 1.387.259.396.639.712 1.141.947zM39.207 20.236c-.613 0-1.108-.073-1.484-.22a1.555 1.555 0 0 1-.831-.759c-.17-.36-.255-.844-.255-1.453v-2.389h-.919v-1.288h.919v-1.629h1.651v1.629h1.773v1.288h-1.773v2.455c0 .286.074.506.222.66.155.147.373.22.654.22h.897v1.486h-.853zM42.194 20.104c.399.176.857.264 1.374.264.509 0 .96-.088 1.351-.264s.717-.422.975-.737c.259-.316.432-.675.521-1.079h-1.628c-.074.183-.214.337-.421.462s-.473.187-.797.187c-.201 0-.381-.024-.54-.071a1.204 1.204 0 0 1-.324-.149 1.277 1.277 0 0 1-.488-.616 2.525 2.525 0 0 1-.125-.495h4.434v-.594a3.28 3.28 0 0 0-.355-1.519 2.826 2.826 0 0 0-1.03-1.134c-.443-.294-.99-.44-1.64-.44-.495 0-.938.088-1.33.264-.384.169-.705.4-.964.693s-.458.627-.598 1.002a3.365 3.365 0 0 0-.199 1.156v.22c0 .389.066.771.199 1.145.141.367.34.701.598 1.002.266.294.594.528.986.704zm-.072-3.587l.016-.069a1.87 1.87 0 0 1 .089-.274c.111-.272.273-.477.487-.616a1.23 1.23 0 0 1 .26-.127c.157-.055.332-.082.526-.082.303 0 .554.07.753.209.207.132.362.327.465.583l.024.063.034.105a1.989 1.989 0 0 1 .064.294h-2.737l.017-.087zM47.257 20.159v-6.032h1.407v1.519a2.812 2.812 0 0 1 .133-.462c.155-.411.387-.719.698-.925.31-.213.69-.319 1.141-.319h.077c.458 0 .838.106 1.141.319.31.206.543.514.698.925l.012.031.011.028.021-.059c.163-.411.399-.719.709-.925.31-.213.691-.319 1.141-.319h.078c.457 0 .841.106 1.152.319.318.206.558.514.72.925s.244.925.244 1.541v3.434h-1.773v-3.533c0-.33-.088-.598-.266-.803-.17-.206-.413-.308-.731-.308s-.569.106-.754.319c-.185.205-.277.481-.277.826v3.5h-1.784v-3.533c0-.33-.088-.598-.266-.803-.17-.206-.41-.308-.72-.308-.325 0-.58.106-.765.319-.185.205-.277.481-.277.826v3.5h-1.773zM61.375 18.996v1.162h1.407v-3.699c0-.558-.111-1.013-.332-1.365-.221-.36-.547-.627-.975-.803-.421-.176-.942-.264-1.562-.264-.134 0-.275.001-.421.004l-.266.007c-.244.007-.48.018-.709.033l-.175.012c-.09.006-.174.012-.253.019l-.17.014v1.486a65.124 65.124 0 0 1 .998-.055c.111-.005.221-.01.33-.013l.256-.008c.266-.007.48-.011.643-.011.325 0 .561.077.709.231s.221.385.221.694v.022h-1.097c-.539 0-1.015.07-1.429.209-.414.132-.735.341-.964.627-.229.279-.343.638-.343 1.079 0 .404.092.752.277 1.046.185.286.439.506.764.66.333.154.717.231 1.152.231.421 0 .775-.077 1.064-.231.295-.154.524-.374.687-.66a2.006 2.006 0 0 0 .174-.382l.014-.043zm-.299-1.072v-.484h-1.108c-.31 0-.55.077-.72.231-.163.147-.244.349-.244.605a.78.78 0 0 0 .244.595c.17.147.41.22.72.22a1.577 1.577 0 0 0 .302-.029.889.889 0 0 0 .628-.434c.103-.169.163-.403.177-.704zM63.843 20.159v-6.032h1.407v1.991c.067-.568.237-1.027.509-1.375.37-.462.901-.693 1.595-.693h.233v1.519h-.443c-.487 0-.864.132-1.13.396-.266.257-.399.631-.399 1.123v3.071h-1.772zM69.835 17.341h.588l1.916 2.818h1.994l-2.43-3.461 1.998-2.571H72.04l-2.205 2.868v-4.871h-1.772v8.035h1.772v-2.818z"/></symbol><symbol id="icon-2" viewBox="0 0 71 32"><path d="M38.982 19.74v-8.639h1.573v8.639h-1.573zM25.666 11.34l3.326 8.4h1.297l3.362-8.4H31.91l-2.25 5.898-2.229-5.898h-1.765zM33.886 19.465c.472.263 1.001.394 1.585.394s1.109-.131 1.573-.394a3.05 3.05 0 0 0 1.117-1.087c.272-.462.408-.976.408-1.541s-.136-1.071-.408-1.518a2.944 2.944 0 0 0-1.117-1.075c-.464-.271-.993-.406-1.585-.406-.576 0-1.101.135-1.573.406a2.958 2.958 0 0 0-1.117 1.075c-.272.446-.408.952-.408 1.518s.136 1.079.408 1.541c.28.454.652.817 1.117 1.087zm2.354-1.254a1.545 1.545 0 0 1-.781.191c-.288 0-.544-.064-.769-.191a1.453 1.453 0 0 1-.528-.55c-.128-.239-.192-.51-.192-.813s.064-.57.192-.801c.128-.231.304-.41.528-.538a1.46 1.46 0 0 1 .769-.203c.296 0 .556.068.781.203.224.127.4.307.528.538s.192.498.192.801c0 .303-.064.573-.192.813a1.35 1.35 0 0 1-.528.55zM42.453 19.537c.4.215.857.323 1.369.323s.965-.104 1.357-.311c.4-.215.709-.514.925-.896.224-.382.336-.828.336-1.338v-3.346h-1.573v3.31c0 .359-.092.637-.276.836s-.44.299-.768.299c-.216 0-.404-.044-.564-.131s-.28-.215-.36-.382a1.483 1.483 0 0 1-.12-.621v-3.31h-1.585v3.346c0 .502.112.944.336 1.326s.532.681.925.896zM47.092 19.74v-5.771h1.573v.501c.141-.137.301-.252.48-.345a2.348 2.348 0 0 1 1.141-.275c.4 0 .765.092 1.093.275.275.147.503.347.682.6.194-.246.431-.442.711-.588.352-.191.744-.287 1.177-.287s.821.092 1.165.275c.344.175.616.43.817.765s.3.733.3 1.195v3.656h-1.573v-3.405c0-.335-.108-.593-.324-.777a1.11 1.11 0 0 0-.781-.287c-.2 0-.388.044-.564.131-.168.08-.3.199-.396.358s-.144.35-.144.574v3.405h-1.573v-3.405c0-.335-.108-.593-.324-.777a1.11 1.11 0 0 0-.781-.287c-.208 0-.396.044-.564.131-.168.08-.3.199-.396.358s-.144.35-.144.574v3.405h-1.573zM58.058 19.477c.472.255 1.013.382 1.621.382.472 0 .909-.084 1.309-.251a2.671 2.671 0 0 0 1.033-.741l-.924-.92a1.75 1.75 0 0 1-.625.454c-.24.096-.508.143-.804.143-.328 0-.616-.068-.865-.203a1.484 1.484 0 0 1-.576-.597 1.813 1.813 0 0 1-.123-.336l4.241-.01a2.38 2.38 0 0 0 .06-.358 2.889 2.889 0 0 0-.348-1.793 2.602 2.602 0 0 0-1.008-1.028c-.424-.255-.917-.382-1.477-.382-.569 0-1.085.135-1.549.406a2.976 2.976 0 0 0-1.105 1.075c-.264.446-.396.956-.396 1.529 0 .581.136 1.099.408 1.553.28.454.656.812 1.129 1.075zm.046-3.24c.028-.106.065-.205.109-.297.128-.255.308-.45.54-.585.232-.143.504-.215.817-.215.296 0 .544.064.744.191.208.12.364.295.468.526.054.111.097.235.128.372l-2.808.008zM15.998 23.21c4.035 0 7.306-3.255 7.306-7.27s-3.271-7.27-7.306-7.27-7.306 3.255-7.306 7.27 3.271 7.27 7.306 7.27zm3.026-11.72c.087.073.137.18.137.293v6.458c0 .849-.692 1.537-1.545 1.537s-1.545-.688-1.545-1.537.692-1.538 1.545-1.538c.281 0 .545.075.773.206v-3.115l-3.863.641v4.575c0 .849-.692 1.538-1.545 1.538s-1.545-.688-1.545-1.538.692-1.538 1.545-1.538c.281 0 .545.075.773.206v-5.125c0-.188.136-.348.323-.379l4.636-.769a.385.385 0 0 1 .313.086z"/></symbol><symbol id="icon-3" viewBox="0 0 94 32"><path d="M28.481 21.874l.895-.225v-9.581l-.895-.225v-.225h4.029c1.512 0 2.621.245 3.328.734.716.479 1.074 1.108 1.074 1.886 0 .539-.154.973-.463 1.302s-.701.574-1.179.734a5.135 5.135 0 0 1-1.641.284v.075c.726.03 1.358.14 1.895.329.547.18 1 .459 1.358.838.368.379.552.863.552 1.452 0 .888-.363 1.587-1.089 2.096-.726.499-1.905.749-3.536.749h-4.327v-.225zm4.028-5.464c.328 0 .632-.09.91-.269.289-.19.517-.449.686-.778a2.37 2.37 0 0 0 .269-1.123c0-.439-.09-.828-.269-1.168a1.982 1.982 0 0 0-.686-.793 1.582 1.582 0 0 0-.91-.284h-.671v4.416h.671zm.299 5.314c.617 0 1.119-.22 1.507-.659s.582-1.043.582-1.812c0-.769-.194-1.372-.582-1.812s-.89-.659-1.507-.659h-.97v4.94h.97zM37.727 21.874l.895-.225v-9.581l-.895-.225v-.225h1.94c.895 0 1.343.449 1.343 1.347v8.683l.895.225v.225h-4.178v-.225zM46.007 22.323c-1.234 0-2.203-.349-2.91-1.048-.696-.709-1.044-1.682-1.044-2.919s.348-2.206 1.044-2.904c.706-.709 1.676-1.063 2.91-1.063s2.198.354 2.895 1.063c.706.699 1.059 1.667 1.059 2.904s-.353 2.211-1.059 2.919c-.696.699-1.661 1.048-2.895 1.048zm0-.299c.398 0 .731-.279 1-.838.279-.559.418-1.502.418-2.829s-.139-2.271-.418-2.83c-.269-.559-.602-.838-1-.838s-.736.279-1.015.838c-.269.559-.403 1.502-.403 2.83s.134 2.271.403 2.829c.279.559.617.838 1.015.838zM53.92 22.323c-.617 0-1.169-.135-1.656-.404a2.494 2.494 0 0 1-.582-.419c-.159.22-.333.389-.522.509-.09.06-.189.115-.298.165h-.373v-2.545h.597c.129.419.319.808.567 1.168.527.769 1.184 1.153 1.97 1.153.417 0 .731-.1.94-.299.219-.21.328-.509.328-.898 0-.329-.149-.604-.448-.823-.288-.23-.746-.509-1.373-.838a16.874 16.874 0 0 1-1.313-.719 3.474 3.474 0 0 1-.851-.808 1.969 1.969 0 0 1-.343-1.153c0-.599.254-1.083.761-1.452.517-.379 1.308-.569 2.373-.569.527 0 1.014.14 1.462.419.219.13.408.265.567.404.129-.18.303-.349.522-.509.169-.1.269-.155.298-.165h.373v2.545h-.597a5.377 5.377 0 0 0-.552-1.153c-.497-.778-1.089-1.168-1.776-1.168-.268 0-.497.1-.686.3s-.283.449-.283.748c0 .379.159.699.478.958.318.25.8.539 1.447.868.527.269.945.509 1.253.719.319.2.587.449.806.748.229.299.343.649.343 1.048 0 1.447-1.144 2.171-3.432 2.171zM61.232 22.323c-.617 0-1.169-.135-1.656-.404a2.494 2.494 0 0 1-.582-.419c-.159.22-.333.389-.523.509a2.1 2.1 0 0 1-.298.165H57.8v-2.545h.597c.129.419.319.808.567 1.168.527.769 1.184 1.153 1.969 1.153.418 0 .731-.1.94-.299.219-.21.328-.509.328-.898 0-.329-.149-.604-.448-.823-.288-.23-.746-.509-1.373-.838a16.874 16.874 0 0 1-1.313-.719 3.474 3.474 0 0 1-.851-.808 1.969 1.969 0 0 1-.343-1.153c0-.599.254-1.083.761-1.452.517-.379 1.308-.569 2.373-.569.527 0 1.014.14 1.462.419.219.13.408.265.567.404a2.31 2.31 0 0 1 .523-.509c.169-.1.268-.155.298-.165h.373v2.545h-.597a5.377 5.377 0 0 0-.552-1.153c-.497-.778-1.089-1.168-1.776-1.168-.268 0-.497.1-.686.3s-.283.449-.283.748c0 .379.159.699.478.958.318.25.8.539 1.447.868.527.269.945.509 1.253.719.319.2.587.449.806.748.229.299.343.649.343 1.048 0 1.447-1.144 2.171-3.432 2.171zM68.992 22.323c-1.233 0-2.203-.349-2.91-1.048-.696-.709-1.045-1.682-1.045-2.919s.348-2.206 1.045-2.904c.706-.709 1.676-1.063 2.91-1.063s2.198.354 2.895 1.063c.706.699 1.06 1.667 1.06 2.904s-.353 2.211-1.06 2.919c-.696.699-1.661 1.048-2.895 1.048zm0-.299c.398 0 .731-.279 1-.838.278-.559.417-1.502.417-2.829s-.139-2.271-.417-2.83c-.269-.559-.602-.838-1-.838s-.736.279-1.014.838c-.268.559-.403 1.502-.403 2.83s.134 2.271.403 2.829c.278.559.617.838 1.014.838zM73.399 21.874l.895-.225v-6.587l-.895-.225v-.225h1.343c.587 0 1.049.19 1.387.569.129.15.239.334.329.554.149-.279.308-.504.477-.674.448-.449.96-.674 1.537-.674s1.085.13 1.522.389c.438.25.776.594 1.014 1.033.15-.289.309-.524.478-.704.458-.479.97-.719 1.537-.719.527 0 1 .11 1.418.329a2.4 2.4 0 0 1 .985.898c.239.379.358.793.358 1.243v4.791l.895.225v.225h-1.94c-.896 0-1.343-.449-1.343-1.348v-3.892c0-.649-.099-1.133-.299-1.452-.199-.329-.423-.494-.671-.494-.289 0-.582.2-.881.599-.119.19-.224.389-.313.599v5.539l.895.225v.225h-4.178v-.225l.895-.225v-4.791c0-.649-.099-1.133-.299-1.452-.199-.329-.423-.494-.672-.494-.288 0-.582.2-.88.599-.119.19-.224.389-.313.599v5.539l.896.225v.225h-4.178v-.225zM16.335 24.957a1.129 1.129 0 0 1-.297.018c-3.126-.238-6.084-1.97-7.77-4.899s-1.702-6.366-.344-9.201a1.1 1.1 0 0 1 1.078-.624 9.858 9.858 0 0 1 3.367.873 10.457 10.457 0 0 1 3.429-3.884c.377-.256.87-.256 1.246 0a10.455 10.455 0 0 1 3.396 3.82 9.841 9.841 0 0 1 3.226-.809c.454-.035.881.213 1.078.624 1.358 2.835 1.342 6.272-.344 9.201s-4.644 4.661-7.77 4.899a1.088 1.088 0 0 1-.297-.018zm2.29-1.776a8.426 8.426 0 0 0 4.597-3.79 8.497 8.497 0 0 0 .371-7.763 8.466 8.466 0 0 0-2.602.682c.402 1.111.622 2.309.622 3.559a10.4 10.4 0 0 1-2.988 7.312zm.61-11.486a9.083 9.083 0 0 0-2.813-3.226 9.08 9.08 0 0 0-2.856 3.309 9.778 9.778 0 0 1 2.769 2.679 9.763 9.763 0 0 1 2.9-2.762zm-2.128 4.088a8.435 8.435 0 0 1 2.67-2.814c.307.911.473 1.886.473 2.901a9.027 9.027 0 0 1-2.343 6.084 9.841 9.841 0 0 0-.8-6.171zm-1.544 0a8.437 8.437 0 0 0-2.528-2.719 9.06 9.06 0 0 0-.442 2.805c0 2.222.798 4.257 2.123 5.833a9.836 9.836 0 0 1 .846-5.92zm.772 6.839a8.492 8.492 0 0 0 0-5.1 8.5 8.5 0 0 0 0 5.1zm-6.887-3.23a8.433 8.433 0 0 0 4.854 3.873 10.4 10.4 0 0 1-3.07-7.395c0-1.225.211-2.4.598-3.492a8.497 8.497 0 0 0-2.752-.75 8.497 8.497 0 0 0 .371 7.763z"/></symbol><symbol id="icon-4" viewBox="0 0 81 32"><path d="M11.41 12.495a5.833 5.833 0 0 1 4.683-2.345c1.93 0 3.64.933 4.702 2.37a1.6 1.6 0 0 0-.123.142c-.195.251-.341.574-.458.901-.236.659-.416 1.521-.583 2.327l-.015.073c-.166.805-.321 1.554-.508 2.11a2.69 2.69 0 0 1-.234.539 2.685 2.685 0 0 1-.246-.546c-.2-.572-.368-1.35-.546-2.18l-.006-.027c-.171-.798-.353-1.644-.58-2.292-.114-.325-.253-.645-.436-.893-.179-.244-.478-.519-.914-.519-.434 0-.733.272-.915.513-.186.247-.331.565-.451.891-.241.656-.438 1.513-.621 2.321l-.019.083c-.181.8-.351 1.548-.544 2.105a3.267 3.267 0 0 1-.206.49 3.34 3.34 0 0 1-.2-.487c-.185-.545-.347-1.272-.52-2.053l-.03-.137c-.18-.808-.375-1.667-.62-2.325-.121-.327-.27-.647-.462-.895a1.73 1.73 0 0 0-.148-.168zm-.644 1.093c.051.1.104.223.16.372.211.569.391 1.346.575 2.174l.036.161c.168.755.343 1.541.548 2.148.109.323.242.639.412.885.161.232.449.533.892.533.442 0 .731-.299.893-.53.171-.245.306-.561.417-.884.214-.619.396-1.423.571-2.193l.027-.118c.188-.828.369-1.607.579-2.178.097-.265.188-.449.268-.564.075.113.161.295.252.555.2.572.368 1.35.546 2.18l.006.027c.171.798.353 1.644.58 2.292.114.326.253.645.436.893.179.244.478.519.914.519.439 0 .736-.278.913-.523.18-.25.315-.57.424-.895.21-.624.377-1.434.536-2.205l.023-.112c.171-.829.336-1.604.539-2.172.044-.123.087-.229.129-.317.311.71.484 1.495.484 2.319 0 3.206-2.611 5.805-5.832 5.805s-5.832-2.599-5.832-5.805c0-.843.181-1.644.505-2.367zm5.327-4.599c-3.865 0-6.999 3.119-6.999 6.966s3.133 6.966 6.999 6.966c3.865 0 6.998-3.119 6.998-6.966s-3.133-6.966-6.998-6.966zm.133 4.308l-.004.003.004-.003zm-.161.001l-.004-.003.004.003zm2.723 5.425l.004-.003-.004.003zm.169-.005l.004.003-.004-.003zm-5.687.015l.005-.004-.005.004zm.236-.003l.005.004-.005-.004zM26.956 20.079L25.259 14.3h1.487l1.007 4.159 1.17-4.159h1.662l1.171 4.159 1.018-4.159h1.486l-1.709 5.779h-1.557l-1.241-4.322-1.241 4.322h-1.557zM36.441 20.219c-.499 0-.909-.078-1.229-.233-.32-.163-.558-.377-.714-.641s-.234-.555-.234-.874c0-.536.211-.971.632-1.305s1.053-.501 1.896-.501h1.475v-.14c0-.396-.113-.687-.339-.874s-.507-.28-.843-.28c-.304 0-.57.074-.796.221a.908.908 0 0 0-.421.629h-1.463a2.06 2.06 0 0 1 .421-1.095c.25-.311.57-.548.96-.711.39-.171.827-.256 1.311-.256.827 0 1.479.206 1.955.617s.714.994.714 1.748v3.553H38.49l-.14-.932a2.144 2.144 0 0 1-.726.769c-.304.202-.698.303-1.182.303zm.339-1.165c.429 0 .761-.14.995-.419.242-.28.394-.625.457-1.037h-1.276c-.398 0-.683.074-.854.221a.65.65 0 0 0-.258.524c0 .225.086.4.258.524s.398.186.679.186zM42.123 20.079l-2.13-5.779h1.568l1.475 4.369L44.51 14.3h1.568l-2.142 5.779h-1.814zM49.091 20.219c-.585 0-1.104-.124-1.557-.373s-.807-.598-1.065-1.049c-.257-.45-.386-.971-.386-1.561 0-.598.125-1.13.374-1.596a2.77 2.77 0 0 1 1.053-1.083c.453-.264.983-.396 1.592-.396.57 0 1.073.124 1.51.373s.777.59 1.019 1.025c.249.427.374.905.374 1.433 0 .085-.004.175-.012.268 0 .093-.004.19-.012.291h-4.412c.031.45.187.804.468 1.06.289.256.636.384 1.042.384.304 0 .558-.066.761-.198.21-.14.367-.318.468-.536h1.522a2.759 2.759 0 0 1-.55 1.002c-.25.295-.562.528-.937.699a2.93 2.93 0 0 1-1.252.256zm.012-4.846c-.367 0-.69.105-.971.315-.281.202-.46.513-.539.932h2.891c-.024-.381-.164-.683-.421-.909s-.578-.338-.96-.338zM52.797 20.079v-8.388h1.498v8.388h-1.498zM58.178 20.219c-.585 0-1.104-.124-1.556-.373s-.808-.598-1.065-1.049c-.258-.45-.386-.971-.386-1.561 0-.598.125-1.13.374-1.596a2.77 2.77 0 0 1 1.053-1.083c.453-.264.983-.396 1.592-.396.57 0 1.073.124 1.51.373s.776.59 1.018 1.025c.249.427.374.905.374 1.433 0 .085-.004.175-.012.268 0 .093-.004.19-.012.291h-4.413c.031.45.187.804.468 1.06.288.256.636.384 1.041.384.304 0 .558-.066.761-.198.211-.14.367-.318.468-.536h1.522a2.759 2.759 0 0 1-.55 1.002c-.25.295-.562.528-.936.699a2.932 2.932 0 0 1-1.253.256zm.012-4.846c-.367 0-.69.105-.971.315-.281.202-.46.513-.539.932h2.891c-.024-.381-.164-.683-.421-.909s-.577-.338-.96-.338zM64.284 20.219c-.515 0-.967-.082-1.358-.245-.39-.171-.702-.404-.936-.699s-.374-.637-.421-1.025h1.51c.047.225.172.419.374.582.211.155.48.233.807.233s.566-.066.714-.198c.156-.132.234-.284.234-.454 0-.249-.109-.416-.328-.501a5.328 5.328 0 0 0-.913-.268c-.249-.054-.503-.12-.761-.198s-.495-.175-.714-.291a1.654 1.654 0 0 1-.515-.466 1.227 1.227 0 0 1-.199-.711c0-.513.203-.944.609-1.293.413-.35.991-.524 1.732-.524.687 0 1.233.159 1.638.478.414.318.66.757.738 1.316h-1.416c-.086-.427-.41-.641-.971-.641-.281 0-.5.054-.656.163a.49.49 0 0 0-.222.408c0 .171.113.307.34.408s.527.194.901.28c.406.093.776.198 1.112.315.343.109.616.276.82.501.203.217.304.532.304.944.008.357-.086.68-.281.967s-.476.513-.843.676c-.367.163-.8.245-1.299.245zM69.965 20.219c-.515 0-.967-.082-1.358-.245-.39-.171-.702-.404-.936-.699s-.374-.637-.421-1.025h1.51c.047.225.172.419.374.582.211.155.48.233.808.233s.566-.066.714-.198c.156-.132.234-.284.234-.454 0-.249-.109-.416-.328-.501a5.273 5.273 0 0 0-.913-.268c-.25-.054-.503-.12-.761-.198s-.495-.175-.714-.291a1.654 1.654 0 0 1-.515-.466 1.227 1.227 0 0 1-.199-.711c0-.513.203-.944.609-1.293.413-.35.991-.524 1.732-.524.687 0 1.233.159 1.639.478.413.318.659.757.737 1.316h-1.416c-.086-.427-.409-.641-.971-.641-.281 0-.5.054-.656.163a.49.49 0 0 0-.222.408c0 .171.113.307.34.408s.527.194.901.28c.406.093.776.198 1.112.315.344.109.617.276.82.501.203.217.304.532.304.944.008.357-.086.68-.281.967s-.476.513-.843.676c-.367.163-.8.245-1.299.245z"/></symbol><symbol id="icon-5" viewBox="0 0 83 32"><path d="M15.949 7.091L7.023 17.816h8.033l-.893 7.15 8.926-10.725h-8.033l.893-7.15zM35.727 14.568v3.308h-4.766v4.532h-3.745V8.973h9.512v3.309h-5.767v2.286h4.766zM41.95 8.973v13.435h-3.444V8.973h3.444zM47.633 11.881c.534 0 1.054.12 1.562.361.521.227.948.521 1.282.882v-.942h3.444v10.226h-3.444v-1.704c-.253.561-.641 1.036-1.161 1.424s-1.148.582-1.883.582c-.761 0-1.475-.194-2.143-.582s-1.215-.982-1.642-1.785c-.414-.815-.621-1.838-.621-3.068 0-1.15.207-2.125.621-2.928.427-.802.988-1.41 1.682-1.825a4.37 4.37 0 0 1 2.303-.642zm.721 3.368c-.494 0-.908.2-1.242.602-.32.401-.48.876-.48 1.424s.167 1.009.501 1.384c.333.374.774.561 1.322.561.293 0 .594-.074.901-.221.307-.16.567-.394.781-.702.227-.321.341-.729.341-1.223v-.983a4.143 4.143 0 0 0-1.001-.602 2.734 2.734 0 0 0-1.121-.241zM59.263 11.881c.668 0 1.282.1 1.843.301.574.187 1.035.448 1.381.782v2.707a8.954 8.954 0 0 0-1.181-.602 3.403 3.403 0 0 0-1.422-.301c-.32 0-.608.067-.861.201a.606.606 0 0 0-.36.581c0 .187.073.328.22.421s.434.194.861.301l.621.16c1.776.454 2.663 1.41 2.663 2.867 0 .668-.2 1.263-.6 1.785-.387.508-.901.909-1.542 1.203a4.94 4.94 0 0 1-2.043.421 6.79 6.79 0 0 1-2.123-.321 7.027 7.027 0 0 1-1.682-.822v-2.687a7.88 7.88 0 0 0 1.622.742c.614.2 1.161.301 1.642.301.387 0 .667-.047.841-.14.187-.094.28-.261.28-.501 0-.187-.107-.328-.32-.421a7.365 7.365 0 0 0-.921-.361l-1.021-.321c-.748-.227-1.295-.581-1.642-1.063-.347-.495-.52-1.096-.52-1.805s.187-1.317.56-1.825c.374-.508.881-.902 1.522-1.183.654-.281 1.382-.421 2.183-.421zM70.133 11.881c1.041 0 1.889.354 2.543 1.063.667.709 1.001 1.758 1.001 3.148v6.316h-3.444l-.02-5.775c0-.508-.141-.862-.421-1.063a1.512 1.512 0 0 0-.941-.321c-.374 0-.688.1-.941.301a2.917 2.917 0 0 0-.661.682v6.176h-3.444V8.973h3.444v4.532c.32-.441.707-.822 1.161-1.143.467-.321 1.041-.481 1.722-.481zM73.504 9.051v.427h-.513v1.298h-.487V9.478h-.513v-.427h1.512zM75.503 9.026v1.758h-.487v-.853l-.357.401h-.146l-.357-.401v.853h-.487V9.026h.172l.745.75.744-.75h.172z"/></symbol></defs></svg>